Coordinates
version=1
nRows=6
nColumns=63
inDegrees=yes

Units are S.I. units (second, meters, Newtons, ...)
If the header above contains a line with 'inDegrees', this indicates whether rotational values are in degrees (yes) or radians (no).

endheader
time	pelvis_tilt	pelvis_list	pelvis_rotation	pelvis_tx	pelvis_ty	pelvis_tz	hip_flexion_r	hip_adduction_r	hip_rotation_r	knee_angle_r	knee_angle_r_beta	ankle_angle_r	subtalar_angle_r	mtp_angle_r	hip_flexion_l	hip_adduction_l	hip_rotation_l	knee_angle_l	knee_angle_l_beta	ankle_angle_l	subtalar_angle_l	mtp_angle_l	L5_S1_Flex_Ext	L5_S1_Lat_Bending	L5_S1_axial_rotation	L4_L5_Flex_Ext	L4_L5_Lat_Bending	L4_L5_axial_rotation	L3_L4_Flex_Ext	L3_L4_Lat_Bending	L3_L4_axial_rotation	L2_L3_Flex_Ext	L2_L3_Lat_Bending	L2_L3_axial_rotation	L1_L2_Flex_Ext	L1_L2_Lat_Bending	L1_L2_axial_rotation	L1_T12_Flex_Ext	L1_T12_Lat_Bending	L1_T12_axial_rotation	Abs_r3	Abs_r2	Abs_r1	Abs_t1	Abs_t2	neck_flexion	neck_bending	neck_rotation	arm_flex_r	arm_add_r	arm_rot_r	elbow_flex_r	pro_sup_r	wrist_flex_r	wrist_dev_r	arm_flex_l	arm_add_l	arm_rot_l	elbow_flex_l	pro_sup_l	wrist_flex_l	wrist_dev_l
0.000000	2.888236	-5.797799	82.970717	0.335657	1.018368	0.420493	3.626857	-2.762027	5.005631	6.426829	0.112169	24.243833	7.006519	0.000000	1.958998	1.112393	-4.515793	2.909892	0.050787	22.184193	-5.458108	0.000000	0.094380	0.273176	0.252082	0.175272	0.363324	0.267838	0.155056	0.664200	0.267838	0.107866	0.664200	0.220572	0.087641	0.557060	0.204817	0.053928	0.423149	0.189062	0.674144	3.090221	1.402007	0.000000	0.000000	27.743737	5.319577	5.030828	21.394677	-17.191188	61.925761	75.667910	47.731718	-22.967052	4.505444	4.689172	-13.385001	33.611935	83.410330	71.487910	-20.387987	26.626419
0.017857	2.674184	-5.919272	82.678690	0.335354	1.018394	0.422947	4.033520	-2.912087	6.155753	6.395606	0.111624	24.563018	5.614968	0.000000	2.373426	1.328715	-5.286485	3.138762	0.054782	22.082425	-5.034289	0.000000	0.088133	0.255751	0.293893	0.163672	0.340149	0.312261	0.144794	0.621832	0.312261	0.100727	0.621832	0.257156	0.081840	0.521527	0.238788	0.050359	0.396158	0.220420	0.629525	2.893104	1.634544	0.000000	0.000000	27.586187	5.211426	4.456780	21.526122	-16.805003	61.980584	74.809339	60.032948	-21.676416	9.148561	5.478492	-13.504151	34.575775	82.736964	72.563514	-21.783636	26.959869
0.035714	2.476844	-6.013675	82.357270	0.335272	1.018413	0.425033	4.390381	-3.047585	7.152044	6.391254	0.111548	24.838714	4.532909	0.000000	2.713009	1.515983	-6.089797	3.322824	0.057994	22.055216	-4.560403	0.000000	0.084421	0.237942	0.347634	0.156779	0.316462	0.369361	0.138695	0.578531	0.369361	0.096485	0.578531	0.304179	0.078393	0.485210	0.282452	0.048238	0.368572	0.260725	0.603012	2.691643	1.933434	0.000000	0.000000	27.464191	5.084758	3.934321	21.536048	-16.471080	61.925380	74.105108	69.892778	-20.628430	13.016516	6.190647	-13.619932	35.460236	82.119484	73.587439	-22.919104	27.283265
0.053571	2.296655	-6.081960	82.011459	0.335387	1.018427	0.426767	4.697551	-3.168644	8.007321	6.409702	0.111870	25.073157	3.730073	0.000000	2.980823	1.675857	-6.914985	3.464915	0.060474	22.092134	-4.048787	0.000000	0.082969	0.219956	0.411419	0.154082	0.292542	0.437133	0.136310	0.534802	0.437133	0.094825	0.534802	0.359992	0.077045	0.448535	0.334278	0.047408	0.340712	0.308565	0.592639	2.488189	2.288192	0.000000	0.000000	27.374828	4.942672	3.463555	21.441767	-16.186403	61.777018	73.543682	77.513361	-19.809994	16.164332	6.825133	-13.731668	36.263808	81.560129	74.546223	-23.818250	27.592874
0.071429	2.134054	-6.125082	81.646260	0.335677	1.018440	0.428165	4.955142	-3.275385	8.734398	6.446879	0.112519	25.268583	3.176195	0.000000	3.179943	1.809999	-7.751307	3.567868	0.062271	22.182749	-3.511779	0.000000	0.083501	0.202003	0.483365	0.155070	0.268664	0.513575	0.137184	0.491150	0.513575	0.095434	0.491150	0.422944	0.077539	0.411924	0.392734	0.047713	0.312902	0.362524	0.596441	2.285096	2.688330	0.000000	0.000000	27.315179	4.788261	3.044587	21.260592	-15.947957	61.552365	73.113526	83.096851	-19.208007	18.647033	7.381449	-13.838686	36.984979	81.061141	75.426403	-24.504936	27.884966
0.089286	1.989478	-6.143993	81.266674	0.336122	1.018454	0.429242	5.163265	-3.367930	9.346090	6.498716	0.113424	25.427227	2.841007	0.000000	3.313443	1.920071	-8.588018	3.634520	0.063434	22.316631	-2.961715	0.000000	0.085743	0.184289	0.561584	0.159232	0.245104	0.596683	0.140866	0.448080	0.596683	0.097995	0.448080	0.491386	0.079621	0.375802	0.456287	0.048993	0.285464	0.421188	0.612450	2.084715	3.123363	0.000000	0.000000	27.282323	4.624623	2.677524	21.009834	-15.752727	61.268287	72.803105	86.845402	-18.809366	20.519642	7.859093	-13.940313	37.622240	80.624759	76.214519	-25.003019	28.155807
